<svg xmlns="http://www.w3.org/2000/svg" viewBox="0 0 100 100">
  <defs>
    <linearGradient id="shine" x1="0" y1="0" x2="1" y2="1">
      <stop offset="0%" stop-color="#ff1a1a"/>
      <stop offset="50%" stop-color="#e50914"/>
      <stop offset="100%" stop-color="#b20710"/>
    </linearGradient>
    <linearGradient id="shadow" x1="0" y1="0" x2="0" y2="1">
      <stop offset="0%" stop-color="#e50914"/>
      <stop offset="100%" stop-color="#8b0000"/>
    </linearGradient>
    <filter id="drop" x="-10%" y="-10%" width="130%" height="130%">
      <feDropShadow dx="1.5" dy="2" stdDeviation="2" flood-color="#000" flood-opacity="0.5"/>
    </filter>
  </defs>
  <g filter="url(#drop)">
    <path d="M20 8 L20 92 L48 92 C72 92 88 74 88 50 C88 26 72 8 48 8 Z" fill="url(#shadow)"/>
    <path d="M20 8 L20 92 L48 92 C72 92 88 74 88 50 C88 26 72 8 48 8 Z M32 20 L48 20 C64 20 76 33 76 50 C76 67 64 80 48 80 L32 80 Z" fill="url(#shine)"/>
    <path d="M32 20 L48 20 C64 20 76 33 76 50 C76 67 64 80 48 80 L32 80 Z" fill="url(#shadow)" opacity="0.15"/>
    <rect x="32" y="20" width="6" height="60" fill="url(#shine)" rx="1"/>
    <path d="M48 20 C64 20 76 33 76 50 C76 67 64 80 48 80" fill="none" stroke="url(#shine)" stroke-width="6"/>
    <rect x="32" y="20" width="16" height="6" fill="url(#shine)" rx="1"/>
    <rect x="32" y="74" width="16" height="6" fill="url(#shine)" rx="1"/>
    <path d="M32 20 L38 20 L38 24 L32 24 Z" fill="#ff4444" opacity="0.5"/>
  </g>
</svg>
